<svg width="640" height="651" viewBox="0 0 640 651" fill="none" xmlns="http://www.w3.org/2000/svg">
<path d="M252.133 39.9271C235.244 -4.01619 151.687 -25.7162 165.476 61.7788C167.737 76.1251 167.964 100.828 165.476 130.897C163.196 158.441 118.574 173.513 104.876 209.103C83.3941 264.92 163.713 303.824 150.932 333.166C134.191 371.596 82.9314 388.27 54.5783 409.296C27.8869 429.088 10.8853 460.847 4.35735 493.498C-7.09519 550.781 13.6883 610.812 70.9403 613.798C99.6002 615.293 137.399 602.494 184.867 567.898C206.091 552.431 224.805 539.684 241.437 529.376C284.246 502.847 272.737 565.599 323.641 567.898C352.645 569.209 382.939 515.035 405.872 543.932C422.178 564.479 440.89 589.409 467.613 615.04C514.543 660.053 573.219 666.68 581.518 602.438C585.435 572.113 578.127 525.994 553.059 460.667C537.016 418.861 576.92 420.335 581.518 366.762C586.115 313.19 548.519 288.484 575.735 266.311L576.28 265.867C597.025 248.968 619.149 230.945 631.232 196.329C641.64 166.51 640.646 136.976 631.232 114.283C621.157 89.9957 601.439 73.5429 575.735 72.9593C549.944 72.3737 518.126 87.7646 483.975 127.248C461.459 153.281 446.211 92.7074 405.872 98.8995C365.533 105.092 359.926 163.537 335.761 146.586C293.783 117.139 271.914 91.3925 252.133 39.9271Z" stroke="url(#paint0_linear_142_4878)" stroke-width="2"/>
<path d="M333.612 279.628C331.042 272.882 319.063 274.653 318.457 281.964C317.767 290.288 321.974 301.136 321.488 309.48C320.549 325.591 314.857 330.177 303.525 338.668C299.463 341.707 296.875 346.582 295.882 351.595C294.139 360.389 297.302 369.604 306.015 370.063C310.376 370.292 316.129 368.327 323.353 363.016C326.583 360.642 329.431 358.685 331.962 357.103C342.981 349.663 353.236 355.492 356.986 359.337C359.468 362.491 362.316 366.319 366.383 370.253C373.525 377.164 384.34 376.258 383.717 368.319C382.837 357.103 363.688 315.236 383.717 307.935C393.021 304.544 392.716 296.863 391.283 293.379C389.75 289.65 386.749 287.125 382.837 287.035C378.912 286.945 372.41 293.379 368.873 295.369C355.814 302.717 344.163 306.515 333.612 279.628Z" stroke="url(#paint1_linear_142_4878)" stroke-width="2"/>
<path d="M179.447 80.9216C167.209 1.27065 243.566 21.126 259.05 61.4108C278.008 110.661 298.966 133.743 338.348 159.871C360.497 175.204 365.826 121.839 402.762 116.039C439.698 110.239 453.81 165.206 474.475 141.526C505.904 105.611 535.127 91.8355 558.733 92.7048C582.186 93.3929 600.167 108.614 609.251 130.962C617.734 151.859 618.434 178.979 608.541 206.262C595.629 238.692 576.983 258.877 558.045 275.382C533.31 295.913 567.287 318.59 562.783 367.364C558.28 416.137 521.564 414.661 535.836 452.385C558.275 511.466 564.666 553.08 560.875 580.386C553.154 638.661 499.448 632.413 456.346 591.369C431.631 567.958 414.121 545.312 398.783 526.954C377.687 500.806 349.865 550.271 323.18 549.293C276.536 547.44 286.712 490.512 247.499 514.75C232.103 524.23 214.846 535.867 195.337 549.929C151.354 581.363 116.674 592.177 90.7555 590.023C38.7085 587.079 19.8795 532.24 30.4162 479.922C36.4721 450.014 52.0927 420.941 76.5633 402.796C103.392 382.901 150.549 367.317 165.867 330.898C177.519 303.826 104.353 267.997 123.817 216.782C136.198 183.968 176.719 169.823 178.824 144.387C181.116 116.7 181.195 94.0204 179.447 80.9216Z" stroke="url(#paint2_linear_142_4878)" stroke-width="2"/>
<path d="M194.044 100.871C183.376 29.3251 252.422 47.2704 266.478 83.7639C284.585 130.633 304.602 150.975 341.331 173.7C361.43 187.365 366.475 139.256 399.954 133.867C433.433 128.478 446.387 177.66 465.171 156.408C493.832 124.18 520.418 112.065 541.805 113.215C562.972 114.005 579.189 127.943 587.269 148.278C594.809 167.311 595.214 191.928 585.85 216.585C572.233 246.416 557.375 268.679 540.43 284.604C518.212 303.426 548.518 324 544.116 367.814C539.713 411.628 506.239 410.155 518.719 443.674C538.496 496.316 543.96 533.289 540.302 557.487C533.169 609.605 484.512 603.757 445.301 566.816C422.629 545.703 406.348 525.416 392.001 509.305C372.772 485.992 347.461 530.585 323.136 529.942C280.819 528.542 289.648 477.624 254.088 499.491C239.951 508.111 224.175 518.6 206.409 531.211C165.976 559.38 134.465 568.175 111.326 565.371C64.5606 562.481 47.7137 513.012 57.3192 465.831C62.8943 438.766 77.111 412.474 99.325 396.036C124.59 377.338 167.577 362.895 181.448 328.611C191.953 303.899 126.049 271.263 143.466 224.818C154.512 194.889 190.872 181.718 192.8 158.475C194.892 133.261 195.278 112.679 194.044 100.871Z" stroke="url(#paint3_linear_142_4878)" stroke-width="2"/>
<path d="M208.011 120.015C198.896 56.3134 260.736 72.4139 273.387 105.249C290.671 149.901 309.778 167.579 343.912 186.986C361.992 199.032 366.761 156.004 396.835 151.007C426.909 146.01 438.725 189.586 455.657 170.686C481.594 142.027 505.584 131.528 524.785 132.961C543.699 133.855 558.176 146.562 565.265 164.957C571.873 182.194 571.983 204.397 563.134 226.518C548.79 253.859 537.7 278.272 522.719 293.673C502.985 310.853 529.668 329.399 525.359 368.413C521.05 407.428 490.766 405.952 501.474 435.389C518.619 481.785 523.164 514.254 519.633 535.433C513.078 581.583 469.393 576.115 434.014 543.142C413.349 524.25 398.271 506.247 384.892 492.325C367.501 471.76 344.663 511.645 322.659 511.334C284.604 510.381 292.1 465.286 260.138 484.863C247.238 492.655 232.919 502.033 216.868 513.238C179.922 538.247 151.533 545.055 131.138 541.593C89.5811 538.746 74.6904 494.468 83.3795 452.253C88.4825 427.931 101.317 404.325 121.309 389.536C145.05 371.967 183.932 358.615 196.38 326.344C205.754 303.901 147.01 274.341 162.406 232.497C172.134 205.345 204.389 193.101 206.143 171.967C208.038 149.135 208.731 130.575 208.011 120.015Z" stroke="url(#paint4_linear_142_4878)" stroke-width="2"/>
<path d="M222.602 139.157C215.056 83.3029 269.582 97.5583 280.803 126.734C297.236 169.174 315.399 184.186 346.876 200.272C362.907 210.699 367.39 172.753 394.005 168.147C420.621 163.542 431.278 201.51 446.329 184.963C469.496 159.874 490.847 150.992 507.827 152.709C524.454 153.708 537.168 165.183 543.252 181.638C548.916 197.08 548.731 216.869 540.412 236.453C525.366 261.303 518.064 287.874 505.075 302.752C487.859 318.291 510.871 334.808 506.664 369.022C502.457 403.236 475.416 401.757 484.332 427.11C498.814 467.257 502.432 495.22 499.035 513.378C493.068 553.559 454.434 548.47 422.949 519.467C404.329 502.796 390.48 487.078 378.093 475.346C362.571 457.531 342.246 492.705 322.603 492.728C288.877 492.222 295.026 452.952 266.718 470.238C255.078 477.202 242.242 485.469 227.935 495.269C194.542 517.115 169.324 521.936 151.709 517.814C115.435 515.01 102.527 475.923 110.285 438.674C114.906 417.097 126.336 396.177 144.07 383.036C166.246 366.597 200.954 354.334 211.955 324.073C220.182 303.9 168.702 277.417 182.051 240.174C190.444 215.8 218.537 204.482 220.113 185.456C221.808 165.007 222.808 148.47 222.602 139.157Z" stroke="url(#paint5_linear_142_4878)" stroke-width="2"/>
<path d="M237.186 159.202C231.208 111.318 278.418 123.697 288.211 149.148C303.788 189.279 321.004 201.592 349.823 214.322C363.802 223.106 367.999 190.327 391.155 186.124C414.311 181.921 423.809 214.197 436.977 200.039C457.374 178.575 476.086 171.33 490.844 173.327C505.185 174.429 516.133 184.646 521.214 199.125C525.934 212.735 525.455 230.066 517.667 247.069C501.924 269.374 498.404 298.04 487.408 312.363C472.71 326.226 492.052 340.676 487.947 370.013C483.842 399.35 460.046 397.871 467.171 419.085C478.992 452.893 481.683 476.287 478.42 491.384C473.043 525.506 439.461 520.808 411.87 495.839C395.296 481.426 382.678 468.03 371.285 458.514C357.632 443.488 339.821 473.873 322.539 474.228C293.144 474.171 297.946 440.814 273.294 455.769C262.915 461.89 251.563 469.028 239 477.4C209.161 496.035 187.116 498.858 172.281 494.085C141.291 491.331 130.365 457.524 137.19 425.325C141.33 406.54 151.355 388.353 166.831 376.89C187.437 361.617 217.971 350.471 227.525 322.29C234.605 304.431 190.389 281.083 201.691 248.526C208.748 226.984 232.679 216.618 234.078 199.743C235.573 181.722 236.878 167.246 237.186 159.202Z" stroke="url(#paint6_linear_142_4878)" stroke-width="2"/>
<path d="M251.139 178.344C246.717 138.312 286.709 148.845 295.093 170.635C309.848 208.558 326.153 218.203 352.373 227.609C364.33 234.773 368.25 207.078 387.995 203.266C407.74 199.455 416.098 226.12 427.411 214.316C445.08 196.424 461.191 190.797 473.759 193.079C485.842 194.286 495.048 203.271 499.136 215.81C502.923 227.624 502.147 242.54 494.875 257.005C478.401 276.819 478.658 307.653 469.631 321.455C457.421 333.676 473.132 346.097 469.12 370.631C465.109 395.164 444.508 393.683 449.857 410.81C459.041 438.364 460.811 457.249 457.675 469.323C452.877 497.472 424.277 493.153 400.523 472.156C385.961 459.965 374.548 448.855 364.124 441.531C352.312 429.257 336.978 454.93 322.022 455.618C296.896 456.01 300.361 428.481 279.314 441.144C270.174 446.436 260.281 452.463 249.437 459.429C223.091 474.9 204.172 475.732 192.086 470.297C166.315 467.585 157.349 438.973 163.257 411.742C166.924 395.703 175.564 380.203 188.814 370.389C207.894 356.244 234.317 346.188 242.444 320.015C248.391 304.427 211.348 284.155 220.626 256.201C226.363 237.437 246.181 227.997 247.406 213.231C248.703 197.592 250.316 185.14 251.139 178.344Z" stroke="url(#paint7_linear_142_4878)" stroke-width="2"/>
<path d="M265.706 197.486C262.852 165.311 295.521 173.996 302.474 192.124C316.366 227.847 331.716 234.82 355.267 240.897C365.17 246.439 368.803 223.832 385.084 220.412C401.366 216.991 408.562 238.04 417.99 228.592C432.884 214.275 446.351 210.268 456.695 212.837C466.489 214.15 473.929 221.903 477.013 232.5C479.856 242.518 478.788 255.018 472.05 266.944C454.891 284.269 458.921 317.286 451.887 330.571C442.197 341.15 454.237 351.541 450.33 371.268C446.423 390.994 429.072 389.509 432.631 402.545C439.154 423.84 439.999 438.211 436.999 447.257C432.792 469.429 409.249 465.488 389.396 448.465C376.884 438.498 366.705 429.677 357.28 424.547C347.339 415.028 334.523 435.985 321.932 437.008C301.143 437.849 303.262 416.154 285.875 426.524C277.998 430.987 269.592 435.902 260.495 441.46C237.712 453.764 221.969 452.601 212.664 446.501C192.179 443.83 185.197 420.415 190.171 398.157C193.355 384.865 200.589 372.053 211.577 363.888C229.081 350.869 251.321 341.902 258 317.733C262.798 304.416 233.026 287.222 240.256 263.873C244.657 247.887 260.31 239.373 261.358 226.716C262.454 213.46 264.371 203.033 265.706 197.486Z" stroke="url(#paint8_linear_142_4878)" stroke-width="2"/>
<path d="M279.864 216.626C278.565 192.318 304.086 199.155 309.646 213.617C322.757 247.151 337.243 251.446 358.258 254.186C366.162 258.103 369.528 240.59 382.434 237.561C395.341 234.531 401.416 249.955 409.01 242.866C421.21 232.128 432.107 229.745 440.284 232.603C447.842 234.023 453.555 240.544 455.65 249.2C457.565 257.419 456.196 267.502 449.953 276.887C432.005 291.722 439.843 326.948 434.765 339.722C427.543 348.66 435.974 357.019 432.148 371.932C428.323 386.845 414.127 385.355 415.912 394.293C419.806 409.318 419.728 419.166 416.846 425.18C413.206 441.364 394.593 437.801 378.532 424.758C368.001 417.016 359 410.487 350.518 407.557C342.395 400.797 332.026 417.033 321.732 418.393C305.165 419.685 305.948 403.834 292.127 411.906L291.745 412.115C285.203 415.687 278.361 419.422 271.103 423.491C251.755 432.624 239.103 429.458 232.531 422.686C217.224 420.056 212.189 401.844 216.257 384.563C218.976 374.02 224.842 363.9 233.629 357.386C249.656 345.49 267.837 337.61 273.104 315.44C276.78 304.394 254.119 290.279 259.338 271.539C262.427 258.333 273.998 250.742 274.873 240.195C275.775 229.324 278.008 220.923 279.864 216.626Z" stroke="url(#paint9_linear_142_4878)" stroke-width="2"/>
<path d="M294.396 236.695C294.663 220.361 312.838 225.319 316.962 236.052C329.193 267.244 342.705 268.844 361.026 268.235C366.869 270.511 369.942 258.169 379.373 255.543C388.804 252.918 393.711 262.65 399.413 257.951C408.826 250.841 417.069 250.091 423.015 253.225C428.276 254.746 432.219 260.005 433.309 266.68C434.278 273.066 432.619 280.686 426.919 287.487C408.312 299.767 419.906 337.04 416.824 349.245C412.128 356.502 416.882 362.791 413.166 372.826C409.451 382.86 398.519 381.373 398.515 386.173C399.747 394.863 398.746 400.146 396.003 403.102C392.959 413.228 379.421 410.059 367.276 401.052C358.807 395.57 351.051 391.362 343.577 390.644C337.334 386.672 329.493 398.116 321.575 399.805C309.36 401.543 308.799 391.604 298.65 397.345C293.263 400.134 287.79 402.806 282.145 405.526C266.381 411.448 256.917 406.294 253.13 398.882C243.122 396.304 240.074 383.376 243.204 371.148C245.438 363.402 249.891 356.018 256.408 351.183C270.838 340.464 284.819 333.707 288.633 313.635C291.157 304.91 275.786 293.937 278.953 279.889C280.704 269.521 288.101 262.888 288.798 254.497C289.499 246.059 292.032 239.722 294.396 236.695Z" stroke="url(#paint10_linear_142_4878)" stroke-width="2"/>
<path d="M309.143 255.862C310.969 247.444 321.856 250.539 324.556 257.575C335.927 286.498 348.487 285.414 364.148 281.465C367.948 282.109 370.734 274.897 376.718 272.669C382.702 270.442 386.453 274.519 390.278 272.193C396.929 268.684 402.541 269.562 406.274 272.977C409.257 274.601 411.442 278.613 411.533 283.328C411.564 287.897 409.612 293.078 404.446 297.318C385.161 307.076 400.506 346.465 399.407 358.127C397.219 363.722 398.32 367.962 394.709 373.153C391.098 378.343 383.401 376.856 381.617 377.541C380.202 379.933 378.281 380.675 375.673 380.588C373.218 384.695 364.713 381.912 356.45 376.91C350.022 373.671 343.496 371.768 337.015 373.254C332.636 372.053 327.301 378.743 321.737 380.765C313.837 382.95 311.938 378.885 305.432 382.313C301.303 384.265 297.309 385.816 293.403 387.118C281.186 389.85 274.884 382.704 273.864 374.639C269.117 372.108 268.042 364.421 270.243 357.207C271.996 352.232 275.048 347.561 279.314 344.391C292.174 334.823 301.993 329.172 304.365 311.152C305.746 304.722 297.61 296.859 298.739 287.461C299.161 279.901 302.414 274.209 302.934 267.952C303.435 261.922 306.27 257.629 309.143 255.862Z" stroke="url(#paint11_linear_142_4878)" stroke-width="2"/>
<defs>
<linearGradient id="paint0_linear_142_4878" x1="320" y1="1.56348" x2="320" y2="649.74" gradientUnits="userSpaceOnUse">
<stop stop-color="#454545"/>
<stop offset="1" stop-color="#191919"/>
</linearGradient>
<linearGradient id="paint1_linear_142_4878" x1="343.73" y1="275.413" x2="343.73" y2="374.906" gradientUnits="userSpaceOnUse">
<stop stop-color="#454545"/>
<stop offset="1" stop-color="#191919"/>
</linearGradient>
<linearGradient id="paint2_linear_142_4878" x1="321.695" y1="26.1902" x2="321.695" y2="623.143" gradientUnits="userSpaceOnUse">
<stop stop-color="#454545"/>
<stop offset="1" stop-color="#191919"/>
</linearGradient>
<linearGradient id="paint3_linear_142_4878" x1="323.814" y1="51.802" x2="323.814" y2="595.561" gradientUnits="userSpaceOnUse">
<stop stop-color="#454545"/>
<stop offset="1" stop-color="#191919"/>
</linearGradient>
<linearGradient id="paint4_linear_142_4878" x1="325.509" y1="76.429" x2="325.509" y2="568.965" gradientUnits="userSpaceOnUse">
<stop stop-color="#454545"/>
<stop offset="1" stop-color="#191919"/>
</linearGradient>
<linearGradient id="paint5_linear_142_4878" x1="327.628" y1="101.056" x2="327.628" y2="542.368" gradientUnits="userSpaceOnUse">
<stop stop-color="#454545"/>
<stop offset="1" stop-color="#191919"/>
</linearGradient>
<linearGradient id="paint6_linear_142_4878" x1="329.746" y1="126.667" x2="329.746" y2="515.771" gradientUnits="userSpaceOnUse">
<stop stop-color="#454545"/>
<stop offset="1" stop-color="#191919"/>
</linearGradient>
<linearGradient id="paint7_linear_142_4878" x1="331.441" y1="151.294" x2="331.441" y2="489.174" gradientUnits="userSpaceOnUse">
<stop stop-color="#454545"/>
<stop offset="1" stop-color="#191919"/>
</linearGradient>
<linearGradient id="paint8_linear_142_4878" x1="333.56" y1="175.921" x2="333.56" y2="462.577" gradientUnits="userSpaceOnUse">
<stop stop-color="#454545"/>
<stop offset="1" stop-color="#191919"/>
</linearGradient>
<linearGradient id="paint9_linear_142_4878" x1="335.679" y1="200.548" x2="335.679" y2="435.98" gradientUnits="userSpaceOnUse">
<stop stop-color="#454545"/>
<stop offset="1" stop-color="#191919"/>
</linearGradient>
<linearGradient id="paint10_linear_142_4878" x1="337.798" y1="226.16" x2="337.798" y2="409.383" gradientUnits="userSpaceOnUse">
<stop stop-color="#454545"/>
<stop offset="1" stop-color="#191919"/>
</linearGradient>
<linearGradient id="paint11_linear_142_4878" x1="340.341" y1="250.786" x2="340.341" y2="387.711" gradientUnits="userSpaceOnUse">
<stop stop-color="#454545"/>
<stop offset="1" stop-color="#191919"/>
</linearGradient>
</defs>
</svg>
