<svg width="40" height="40" viewBox="0 0 40 44" fill="none" xmlns="http://www.w3.org/2000/svg">
<path d="M10.2712 18.8248H30.1721M9.6694 19.4089L19.6079 32.2995C19.6801 32.3936 19.773 32.4699 19.8795 32.5224C19.9859 32.5749 20.103 32.6022 20.2216 32.6022C20.3403 32.6022 20.4574 32.5749 20.5638 32.5224C20.6703 32.4699 20.7632 32.3936 20.8354 32.2995L30.7739 19.4089C30.8716 19.2816 30.9283 19.1277 30.9364 18.9675C30.9445 18.8072 30.9037 18.6484 30.8193 18.5119L27.4481 13.0703C27.3787 12.9576 27.2817 12.8646 27.1662 12.8001C27.0508 12.7355 26.9207 12.7016 26.7884 12.7014H13.6548C13.5226 12.7016 13.3925 12.7355 13.277 12.8001C13.1616 12.8646 13.0645 12.9576 12.9951 13.0703L9.62395 18.5119C9.53959 18.6484 9.49875 18.8072 9.50687 18.9675C9.51499 19.1277 9.57168 19.2816 9.6694 19.4089V19.4089Z" stroke="currentColor" stroke-width="1.3" stroke-linecap="round" stroke-linejoin="round"/>
<path d="M27.1105 13.4668L24.8143 18.8248L20.2218 12.7014M13.333 13.4668L15.6293 18.8248L20.2218 12.7014M20.2218 31.8369L15.6293 18.8248M20.2218 31.8369L24.8143 18.8248" stroke="currentColor" stroke-width="1.3" stroke-linecap="round" stroke-linejoin="round"/>
</svg>
