<svg width="36" height="28" viewBox="0 0 36 28" fill="none" xmlns="http://www.w3.org/2000/svg">
<path d="M29.7811 2.34171C27.5155 1.2514 25.093 0.459008 22.5604 0.0078125C22.2493 0.586229 21.8859 1.36421 21.6354 1.98309C18.9431 1.56664 16.2756 1.56664 13.6328 1.98309C13.3823 1.36421 13.0107 0.586229 12.6969 0.0078125C10.1615 0.459008 7.73621 1.25431 5.47059 2.34748C0.900833 9.45029 -0.337954 16.3767 0.281441 23.2047C3.31235 25.5328 6.24966 26.947 9.1374 27.8725C9.8504 26.8631 10.4863 25.7902 11.0341 24.6594C9.99078 24.2516 8.9915 23.7484 8.0473 23.1642C8.29779 22.9734 8.54281 22.7738 8.77953 22.5685C14.5385 25.339 20.7958 25.339 26.486 22.5685C26.7255 22.7738 26.9704 22.9734 27.2182 23.1642C26.2712 23.7513 25.2692 24.2545 24.2259 24.6623C24.7737 25.7902 25.4069 26.866 26.1226 27.8753C29.0131 26.9499 31.9531 25.5357 34.9841 23.2047C35.7108 15.2893 33.7425 8.4265 29.7811 2.34171ZM11.8187 19.0055C10.0899 19.0055 8.67216 17.3455 8.67216 15.324C8.67216 13.3025 10.0596 11.6395 11.8187 11.6395C13.5778 11.6395 14.9955 13.2995 14.9652 15.324C14.968 17.3455 13.5778 19.0055 11.8187 19.0055ZM23.4468 19.0055C21.718 19.0055 20.3003 17.3455 20.3003 15.324C20.3003 13.3025 21.6877 11.6395 23.4468 11.6395C25.2059 11.6395 26.6236 13.2995 26.5933 15.324C26.5933 17.3455 25.2059 19.0055 23.4468 19.0055Z" fill="white"/>
</svg>
