<svg width="32" height="17" viewBox="0 0 32 17" fill="none" xmlns="http://www.w3.org/2000/svg">
<path d="M20.9122 1.69418L23.829 4.611L30.2363 4.60127C30.4178 4.60053 30.5977 4.63573 30.7655 4.70485C30.9333 4.77397 31.0858 4.87564 31.2142 5.00399C31.3425 5.13234 31.4442 5.28484 31.5133 5.45268C31.5825 5.62052 31.6177 5.80038 31.6169 5.9819L31.6072 11.0085C31.6061 11.3718 31.4613 11.7199 31.2045 11.9767C30.9476 12.2336 30.5995 12.3784 30.2363 12.3794L25.7736 12.3892L17.9954 4.611L16.0508 6.55554C15.793 6.8134 15.4432 6.95827 15.0786 6.95827C14.7139 6.95827 14.3642 6.8134 14.1063 6.55554C13.8484 6.29768 13.7036 5.94794 13.7036 5.58327C13.7036 5.2186 13.8484 4.86886 14.1063 4.611L17.0231 1.69418C17.5388 1.17846 18.2383 0.888724 18.9677 0.888724C19.697 0.888724 20.3965 1.17846 20.9122 1.69418ZM10.2172 0.721909L6.32812 4.611L1.87512 4.611C1.51186 4.61208 1.1638 4.75686 0.906935 5.01372C0.650075 5.27058 0.505293 5.61865 0.504214 5.9819L0.49449 11.0085C0.493745 11.1901 0.528949 11.3699 0.598068 11.5378C0.667187 11.7056 0.768857 11.8581 0.897208 11.9865C1.02556 12.1148 1.17805 12.2165 1.34589 12.2856C1.51374 12.3547 1.6936 12.3899 1.87512 12.3892H10.2172L14.1063 16.2783C14.3642 16.5361 14.7139 16.681 15.0786 16.681C15.4432 16.681 15.793 16.5361 16.0508 16.2783L17.0231 15.306L17.9954 16.2783C18.2532 16.5361 18.603 16.681 18.9677 16.681C19.3323 16.681 19.6821 16.5361 19.9399 16.2783L20.9122 15.306L21.8845 16.2783C22.1423 16.5361 22.4921 16.681 22.8567 16.681C23.2214 16.681 23.5712 16.5361 23.829 16.2783L24.8013 15.306L17.9954 8.50008L17.0231 9.47236C16.5074 9.98808 15.8079 10.2778 15.0786 10.2778C14.3492 10.2778 13.6497 9.98808 13.134 9.47236L11.1895 7.52781C10.6738 7.01209 10.384 6.31261 10.384 5.58327C10.384 4.85392 10.6738 4.15445 11.1895 3.63872L14.1063 0.721909L10.2172 0.721909Z" fill="white"/>
</svg>
