<svg width="24" height="23" viewBox="0 0 24 23" fill="none" xmlns="http://www.w3.org/2000/svg">
<path d="M21.8782 1.54276C21.8698 1.50259 21.8502 1.46563 21.8216 1.43623C21.793 1.40683 21.7566 1.38622 21.7166 1.37682C19.0548 0.725792 12.9057 3.0455 9.57081 6.37798C8.97646 6.96745 8.4345 7.60751 7.95108 8.29092C6.92314 8.19791 5.8952 8.27623 5.01999 8.65804C2.54854 9.74471 1.82947 12.5828 1.62878 13.8011C1.6179 13.8679 1.62255 13.9363 1.64235 14.0009C1.66215 14.0656 1.69658 14.1249 1.74297 14.1741C1.78935 14.2233 1.84645 14.2612 1.90984 14.2848C1.97322 14.3084 2.04119 14.3171 2.10848 14.3102L6.07681 13.8746C6.07955 14.1739 6.09752 14.4729 6.13065 14.7703C6.15136 14.976 6.2431 15.1679 6.39008 15.3132L7.9266 16.8497C8.072 16.9968 8.26415 17.0885 8.46994 17.1091C8.76564 17.1421 9.06282 17.1601 9.36033 17.163L8.92517 21.1279C8.91838 21.1951 8.92713 21.263 8.95074 21.3262C8.97436 21.3895 9.01221 21.4465 9.06136 21.4928C9.11052 21.5392 9.16967 21.5736 9.23424 21.5934C9.29881 21.6132 9.36708 21.6179 9.43375 21.6071C10.6526 21.4113 13.4966 20.6922 14.5769 18.2213C14.9587 17.3451 15.037 16.3225 14.9489 15.2995C15.6343 14.8165 16.2762 14.2745 16.8672 13.6798C20.2144 10.3512 22.5194 4.33728 21.8782 1.54276ZM13.8921 9.3678C13.5997 9.07551 13.4006 8.70309 13.3199 8.29763C13.2392 7.89217 13.2806 7.47188 13.4388 7.08993C13.5969 6.70798 13.8648 6.38152 14.2086 6.15183C14.5523 5.92214 14.9564 5.79955 15.3698 5.79955C15.7833 5.79955 16.1874 5.92214 16.5311 6.15183C16.8748 6.38152 17.1427 6.70798 17.3009 7.08993C17.4591 7.47188 17.5005 7.89217 17.4198 8.29763C17.3391 8.70309 17.14 9.07551 16.8476 9.3678C16.6537 9.56213 16.4234 9.71631 16.1698 9.8215C15.9162 9.92669 15.6444 9.98084 15.3698 9.98084C15.0953 9.98084 14.8235 9.92669 14.5699 9.8215C14.3163 9.71631 14.086 9.56213 13.8921 9.3678V9.3678Z" stroke="currentColor" stroke-width="1.5" stroke-linecap="round" stroke-linejoin="round"/>
</svg>
