<svg width="31" height="82" viewBox="0 0 31 82" fill="none" xmlns="http://www.w3.org/2000/svg">
<path d="M19.0813 45.6769C21.6178 44.9843 23.8898 43.6404 25.7005 41.8473C28.4185 39.1557 30.1045 35.4421 30.1045 31.3542V14.9988C30.1045 10.9109 28.4185 7.19731 25.7005 4.50572C22.9825 1.81414 19.2325 0.144531 15.1045 0.144531C10.9802 0.144531 7.22647 1.81414 4.50847 4.50572C1.79048 7.19731 0.104492 10.9146 0.104492 14.9988V31.3505C0.104492 35.4384 1.79048 39.1519 4.50847 41.8435C6.62163 43.9361 9.35474 45.4111 12.4054 45.9651C14.2502 46.3021 17.3802 46.1411 19.0813 45.6769ZM14.9344 34.6073C16.5032 34.6073 17.7885 33.3345 17.7885 31.781V28.8685C17.7885 27.315 16.5032 26.0422 14.9344 26.0422C13.3656 26.0422 12.0803 27.315 12.0803 28.8685V31.781C12.0803 33.3345 13.3618 34.6073 14.9344 34.6073ZM23.1942 39.3653C21.1189 41.4205 18.2534 42.7008 15.1045 42.7008C11.9556 42.7008 9.09391 41.4243 7.01477 39.3653C4.93942 37.3101 3.64658 34.4725 3.64658 31.3542V14.9988C3.64658 11.8804 4.93564 9.04661 7.01477 6.98767C9.09013 4.93249 11.9556 3.6522 15.1045 3.6522C18.2534 3.6522 21.1151 4.92874 23.1942 6.98767C25.2696 9.04286 26.5624 11.8804 26.5624 14.9988V31.3505C26.5624 34.4725 25.2733 37.3064 23.1942 39.3653Z" fill="white" fill-opacity="0.74"/>
<g clip-path="url(#clip0_142_4908)">
<path d="M29.3546 63.3693L28.5345 62.5498L15.6046 75.4792L2.67461 62.5498L1.85449 63.3693L15.6046 77.1194L29.3546 63.3693Z" fill="white" fill-opacity="0.74"/>
<path d="M29.3546 56.9892L28.5345 56.1697L15.6046 69.099L2.67461 56.1697L1.85449 56.9892L15.6046 70.7393L29.3546 56.9892Z" fill="white" fill-opacity="0.74"/>
</g>
<defs>
<clipPath id="clip0_142_4908">
<rect width="29" height="29" fill="white" transform="translate(1.10449 52.1445)"/>
</clipPath>
</defs>
</svg>
