<svg width="24" height="23" viewBox="0 0 24 23" fill="none" xmlns="http://www.w3.org/2000/svg">
<path d="M12.182 11.7163L10.227 6.85486C10.1976 6.78191 10.1459 6.71917 10.0785 6.67492C10.0111 6.63067 9.93133 6.60698 9.84961 6.60698C9.76789 6.60698 9.68809 6.63067 9.62073 6.67492C9.55337 6.71917 9.5016 6.78191 9.47227 6.85486L7.51727 11.7163C7.49696 11.7669 7.4658 11.8127 7.42579 11.851C7.38578 11.8893 7.33783 11.9191 7.28502 11.9385L2.20256 13.8085C2.12629 13.8366 2.0607 13.8861 2.01444 13.9505C1.96817 14.0149 1.94341 14.0913 1.94341 14.1694C1.94341 14.2476 1.96817 14.3239 2.01444 14.3884C2.0607 14.4528 2.12629 14.5023 2.20256 14.5304L7.28502 16.4004C7.33783 16.4198 7.38578 16.4496 7.42579 16.4879C7.4658 16.5261 7.49696 16.572 7.51727 16.6225L9.47227 21.484C9.5016 21.557 9.55337 21.6197 9.62073 21.6639C9.68809 21.7082 9.76789 21.7319 9.84961 21.7319C9.93133 21.7319 10.0111 21.7082 10.0785 21.6639C10.1459 21.6197 10.1976 21.557 10.227 21.484L12.182 16.6225C12.2023 16.572 12.2334 16.5261 12.2734 16.4879C12.3134 16.4496 12.3614 16.4198 12.4142 16.4004L17.4967 14.5304C17.5729 14.5023 17.6385 14.4528 17.6848 14.3884C17.731 14.3239 17.7558 14.2476 17.7558 14.1694C17.7558 14.0913 17.731 14.0149 17.6848 13.9505C17.6385 13.8861 17.5729 13.8366 17.4967 13.8085L12.4142 11.9385C12.3614 11.9191 12.3134 11.8893 12.2734 11.851C12.2334 11.8127 12.2023 11.7669 12.182 11.7163ZM5.35742 3.34131L4.45898 1.10693L3.56055 3.34131L1.22461 4.20068L3.56055 5.06006L4.45898 7.29443L5.35742 5.06006L7.69336 4.20068L5.35742 3.34131ZM19.6727 5.46096L18.4746 2.48193L17.2765 5.46096L14.1621 6.60693L17.2765 7.75291L18.4746 10.7319L19.6727 7.75291L22.7871 6.60693L19.6727 5.46096Z" stroke="currentColor" stroke-width="1.5" stroke-linecap="round" stroke-linejoin="round"/>
</svg>
