<svg width="26" height="21" viewBox="0 0 26 21" fill="none" xmlns="http://www.w3.org/2000/svg">
<path d="M21.5595 7.14585C21.305 7.40059 20.9607 7.54356 20.602 7.54356C20.2432 7.54356 19.899 7.40059 19.6445 7.14585L18.5205 6.01309C18.2676 5.75686 18.1256 5.41018 18.1256 5.04881C18.1256 4.68744 18.2676 4.34076 18.5205 4.08453L21.065 1.52133C21.0699 1.5164 21.0735 1.51035 21.0755 1.50369C21.0776 1.49703 21.078 1.48997 21.0767 1.48312C21.0754 1.47627 21.0725 1.46984 21.0682 1.46438C21.0639 1.45893 21.0583 1.45462 21.052 1.45182C19.41 0.743657 17.2805 1.10378 15.9286 2.45615C14.6346 3.75009 14.5611 5.69326 15.0351 7.39215C15.1024 7.63347 15.1023 7.88885 15.0346 8.13009C14.9669 8.37132 14.8344 8.58901 14.6516 8.75912L6.00171 16.8562C5.79526 17.0424 5.62868 17.2691 5.51215 17.5224C5.39563 17.7757 5.33161 18.0503 5.32401 18.3293C5.31641 18.6084 5.36539 18.8861 5.46795 19.1454C5.57052 19.4048 5.72451 19.6403 5.92052 19.8377C6.11653 20.035 6.35044 20.19 6.60794 20.2932C6.86545 20.3964 7.14114 20.4456 7.41815 20.4378C7.69517 20.43 7.9677 20.3654 8.21908 20.2478C8.47046 20.1303 8.69541 19.9624 8.88017 19.7543L16.9875 11.0257C17.1546 10.8446 17.3675 10.7128 17.6033 10.6444C17.8391 10.5761 18.089 10.5738 18.326 10.6378C19.999 11.0881 21.9005 11.0035 23.1794 9.73423C24.5539 8.37029 24.8504 5.9597 24.1844 4.58014C24.1814 4.57409 24.177 4.56884 24.1716 4.56484C24.1662 4.56083 24.1599 4.55818 24.1532 4.5571C24.1466 4.55602 24.1398 4.55654 24.1334 4.55862C24.127 4.5607 24.1212 4.56427 24.1164 4.56906L21.5595 7.14585Z" stroke="currentColor" stroke-miterlimit="10" stroke-linecap="round"/>
<path d="M10.9266 12.1771C10.0526 11.3208 9.65215 10.9224 9.37665 10.6514C9.23878 10.5135 9.14827 10.3347 9.11832 10.1413C9.08837 9.94783 9.12054 9.74981 9.21015 9.57609C9.2574 9.49066 9.3163 9.41233 9.38515 9.34339L10.1691 8.57327C10.2503 8.4914 10.3457 8.42532 10.4506 8.37835C10.6163 8.30449 10.8001 8.28237 10.9784 8.31488C11.1567 8.34738 11.3212 8.43301 11.4506 8.56068C11.7231 8.82713 12.2221 9.31619 13.1211 10.1986M15.58 12.5447C17.6275 14.4637 20.111 16.7388 21.08 17.5518C21.1524 17.6119 21.2116 17.6867 21.2536 17.7713C21.2957 17.8559 21.3197 17.9484 21.3241 18.0429C21.3286 18.1374 21.3133 18.2318 21.2793 18.32C21.2454 18.4082 21.1935 18.4883 21.127 18.5551L19.458 20.2358C19.3901 20.3027 19.3093 20.3549 19.2207 20.3894C19.1321 20.4238 19.0375 20.4397 18.9426 20.4361C18.8477 20.4326 18.7545 20.4096 18.6687 20.3685C18.5829 20.3275 18.5063 20.2694 18.4435 20.1976C17.617 19.2315 15.3891 16.8174 13.4801 14.8083" stroke="currentColor" stroke-linecap="round" stroke-linejoin="round"/>
<path d="M0.593414 7.61877L2.06389 6.17121C2.08635 6.14897 2.11301 6.13149 2.1423 6.11981C2.17158 6.10813 2.2029 6.10249 2.23439 6.10321C2.29786 6.10253 2.35908 6.12694 2.40488 6.17121V6.17121C2.45813 6.22427 2.52269 6.26442 2.59364 6.28859C2.6646 6.31277 2.74009 6.32034 2.81438 6.31073C3.00587 6.28957 3.21037 6.23014 3.34287 6.10321C3.64286 5.81108 3.29587 5.23538 3.55987 4.8672C3.86173 4.46414 4.19226 4.08371 4.54885 3.7289C4.84884 3.43274 6.04083 2.30249 8.04379 1.49007C8.68434 1.22925 9.36887 1.09551 10.0598 1.09619C11.1892 1.09619 12.0597 1.59987 12.3727 1.88545C12.5606 2.06551 12.7326 2.26167 12.8867 2.47173C12.7362 2.41583 12.5824 2.36924 12.4262 2.33221C12.0978 2.26202 11.7609 2.24064 11.4262 2.26875C10.7597 2.32365 9.95576 2.63441 9.52627 2.97389C8.83128 3.52793 8.53279 4.26934 8.48579 5.22581C8.45179 5.937 8.62178 6.33893 10.2908 8.0207C10.3478 8.08484 10.3779 8.16878 10.3747 8.25484C10.3716 8.3409 10.3354 8.42236 10.2738 8.48206L9.36277 9.38868C9.29927 9.4514 9.21412 9.48691 9.12518 9.48776C9.03625 9.4886 8.95045 9.45472 8.88578 9.39321C7.7888 8.28815 7.05331 7.72655 6.63582 7.47119C6.21832 7.21583 5.88233 7.1438 5.72083 7.12618C5.40366 7.09452 5.08454 7.16261 4.80735 7.3211C4.75871 7.34802 4.71424 7.38195 4.67535 7.42183C4.61043 7.48943 4.55945 7.5693 4.52534 7.65686C4.49123 7.74441 4.47467 7.8379 4.47663 7.93193C4.47858 8.02596 4.499 8.11867 4.53671 8.20471C4.57442 8.29075 4.62868 8.36841 4.69635 8.43321L4.78185 8.5138C4.80404 8.53553 4.82168 8.56153 4.83373 8.59025C4.84578 8.61897 4.85199 8.64983 4.85199 8.68102C4.85199 8.7122 4.84578 8.74306 4.83373 8.77178C4.82168 8.8005 4.80404 8.8265 4.78185 8.84824L3.31287 10.2933C3.29062 10.316 3.26405 10.3339 3.23475 10.346C3.20546 10.3581 3.17404 10.3642 3.14237 10.3638C3.07891 10.3644 3.01771 10.34 2.97188 10.2958L0.593414 7.95724C0.550367 7.91156 0.526367 7.85098 0.526367 7.788C0.526367 7.72502 0.550367 7.66444 0.593414 7.61877V7.61877Z" stroke="currentColor" stroke-linecap="round" stroke-linejoin="round"/>
</svg>
