<svg width="24" height="17" viewBox="0 0 24 17" fill="none" xmlns="http://www.w3.org/2000/svg">
<path d="M15.7451 16.1094L15.9246 16.2959L16.1048 16.11L22.9796 9.01707L22.9796 9.01707L22.9801 9.01653C23.1538 8.83625 23.25 8.59399 23.25 8.34302C23.25 8.09205 23.1538 7.84978 22.9801 7.6695L22.9796 7.66897L16.1048 0.576005L15.9253 0.390793L15.7457 0.576005L14.7764 1.57611L14.6077 1.75011L14.7764 1.9241L20.0647 7.38017L1 7.38017L0.75 7.38017L0.75 7.63017L0.75 9.04877L0.75 9.29877L1 9.29877L20.0647 9.29877L14.7764 14.7548L14.6083 14.9282L14.7758 15.1022L15.7451 16.1094Z" fill="black" stroke="black" stroke-width="0.5"/>
</svg>
