<svg width="297" height="44" viewBox="0 0 297 44" fill="none" xmlns="http://www.w3.org/2000/svg">
<rect x="0.581221" y="0.97795" width="294.921" height="41.9092" rx="20.9546" fill="white" stroke="black" stroke-width="1.10287"/>
<path d="M35.8686 15.1381H37.678V23.6681C37.678 24.4397 37.5253 25.0996 37.2198 25.6479C36.9183 26.1962 36.4933 26.6153 35.945 26.9051C35.3967 27.191 34.7544 27.3339 34.0181 27.3339C33.3406 27.3339 32.7316 27.2106 32.1911 26.9638C31.6545 26.7171 31.2296 26.3587 30.9163 25.8888C30.6069 25.4149 30.4522 24.8391 30.4522 24.1616H32.2557C32.2557 24.4945 32.3321 24.7824 32.4848 25.0252C32.6415 25.268 32.8549 25.4579 33.1252 25.595C33.3993 25.7282 33.7126 25.7948 34.0651 25.7948C34.4489 25.7948 34.774 25.7145 35.0403 25.5539C35.3106 25.3894 35.5162 25.1485 35.6572 24.8313C35.7982 24.5141 35.8686 24.1264 35.8686 23.6681V15.1381ZM50.7712 21.1538C50.7712 22.4384 50.5362 23.5428 50.0663 24.4671C49.5963 25.3874 48.952 26.0963 48.1335 26.5937C47.3189 27.0872 46.3926 27.3339 45.3548 27.3339C44.313 27.3339 43.3828 27.0872 42.5643 26.5937C41.7497 26.0963 41.1074 25.3855 40.6374 24.4612C40.1674 23.5369 39.9325 22.4344 39.9325 21.1538C39.9325 19.8692 40.1674 18.7667 40.6374 17.8463C41.1074 16.922 41.7497 16.2132 42.5643 15.7197C43.3828 15.2223 44.313 14.9736 45.3548 14.9736C46.3926 14.9736 47.3189 15.2223 48.1335 15.7197C48.952 16.2132 49.5963 16.922 50.0663 17.8463C50.5362 18.7667 50.7712 19.8692 50.7712 21.1538ZM48.9736 21.1538C48.9736 20.1747 48.815 19.3502 48.4977 18.6805C48.1844 18.0069 47.7536 17.4978 47.2053 17.1531C46.6609 16.8045 46.0441 16.6303 45.3548 16.6303C44.6616 16.6303 44.0428 16.8045 43.4984 17.1531C42.954 17.4978 42.5232 18.0069 42.206 18.6805C41.8926 19.3502 41.736 20.1747 41.736 21.1538C41.736 22.1329 41.8926 22.9593 42.206 23.6329C42.5232 24.3026 42.954 24.8117 43.4984 25.1603C44.0428 25.5049 44.6616 25.6773 45.3548 25.6773C46.0441 25.6773 46.6609 25.5049 47.2053 25.1603C47.7536 24.8117 48.1844 24.3026 48.4977 23.6329C48.815 22.9593 48.9736 22.1329 48.9736 21.1538ZM54.8497 15.1381V27.1694H53.0344V15.1381H54.8497ZM67.2042 15.1381V27.1694H65.5358L59.4202 18.3457H59.3086V27.1694H57.4933V15.1381H59.1735L65.2949 23.9736H65.4065V15.1381H67.2042ZM75.2466 27.1694H73.3197L77.6493 15.1381H79.7466L84.0762 27.1694H82.1493L78.7479 17.3235H78.6539L75.2466 27.1694ZM75.5697 22.4579H81.8204V23.9854H75.5697V22.4579ZM100.185 19.0506H98.3517C98.2812 18.659 98.15 18.3143 97.9581 18.0167C97.7662 17.719 97.5312 17.4664 97.2531 17.2589C96.9751 17.0513 96.6637 16.8946 96.319 16.7889C95.9783 16.6831 95.616 16.6303 95.2322 16.6303C94.539 16.6303 93.9183 16.8045 93.37 17.1531C92.8256 17.5017 92.3948 18.0128 92.0775 18.6864C91.7642 19.36 91.6076 20.1825 91.6076 21.1538C91.6076 22.1329 91.7642 22.9593 92.0775 23.6329C92.3948 24.3065 92.8275 24.8156 93.3758 25.1603C93.9241 25.5049 94.541 25.6773 95.2264 25.6773C95.6063 25.6773 95.9666 25.6264 96.3073 25.5245C96.6519 25.4188 96.9633 25.2641 97.2414 25.0604C97.5194 24.8568 97.7544 24.6081 97.9463 24.3143C98.1422 24.0167 98.2773 23.676 98.3517 23.2921L100.185 23.298C100.087 23.8894 99.8967 24.4338 99.6147 24.9312C99.3367 25.4247 98.9783 25.8515 98.5397 26.2119C98.1049 26.5683 97.6076 26.8444 97.0475 27.0402C96.4875 27.236 95.8765 27.3339 95.2146 27.3339C94.1728 27.3339 93.2446 27.0872 92.43 26.5937C91.6154 26.0963 90.9731 25.3855 90.5031 24.4612C90.0371 23.5369 89.804 22.4344 89.804 21.1538C89.804 19.8692 90.039 18.7667 90.509 17.8463C90.979 16.922 91.6213 16.2132 92.4359 15.7197C93.2505 15.2223 94.1768 14.9736 95.2146 14.9736C95.853 14.9736 96.4483 15.0656 97.0005 15.2497C97.5566 15.4299 98.056 15.6962 98.4986 16.0487C98.9411 16.3972 99.3073 16.8241 99.5971 17.3294C99.8869 17.8307 100.083 18.4044 100.185 19.0506ZM112.808 21.1538C112.808 22.4384 112.573 23.5428 112.103 24.4671C111.633 25.3874 110.989 26.0963 110.17 26.5937C109.355 27.0872 108.429 27.3339 107.391 27.3339C106.35 27.3339 105.419 27.0872 104.601 26.5937C103.786 26.0963 103.144 25.3855 102.674 24.4612C102.204 23.5369 101.969 22.4344 101.969 21.1538C101.969 19.8692 102.204 18.7667 102.674 17.8463C103.144 16.922 103.786 16.2132 104.601 15.7197C105.419 15.2223 106.35 14.9736 107.391 14.9736C108.429 14.9736 109.355 15.2223 110.17 15.7197C110.989 16.2132 111.633 16.922 112.103 17.8463C112.573 18.7667 112.808 19.8692 112.808 21.1538ZM111.01 21.1538C111.01 20.1747 110.852 19.3502 110.534 18.6805C110.221 18.0069 109.79 17.4978 109.242 17.1531C108.697 16.8045 108.081 16.6303 107.391 16.6303C106.698 16.6303 106.079 16.8045 105.535 17.1531C104.991 17.4978 104.56 18.0069 104.243 18.6805C103.929 19.3502 103.773 20.1747 103.773 21.1538C103.773 22.1329 103.929 22.9593 104.243 23.6329C104.56 24.3026 104.991 24.8117 105.535 25.1603C106.079 25.5049 106.698 25.6773 107.391 25.6773C108.081 25.6773 108.697 25.5049 109.242 25.1603C109.79 24.8117 110.221 24.3026 110.534 23.6329C110.852 22.9593 111.01 22.1329 111.01 21.1538ZM115.071 15.1381H117.274L121.104 24.4906H121.245L125.076 15.1381H127.279V27.1694H125.551V18.4632H125.44L121.892 27.1518H120.458L116.91 18.4573H116.798V27.1694H115.071V15.1381ZM129.918 15.1381H132.121L135.951 24.4906H136.092L139.922 15.1381H142.125V27.1694H140.398V18.4632H140.287L136.738 27.1518H135.305L131.757 18.4573H131.645V27.1694H129.918V15.1381ZM152.501 15.1381H154.323V23.0513C154.323 23.8933 154.125 24.6394 153.729 25.2895C153.334 25.9358 152.778 26.4449 152.061 26.817C151.344 27.1851 150.504 27.3692 149.541 27.3692C148.581 27.3692 147.743 27.1851 147.026 26.817C146.31 26.4449 145.753 25.9358 145.358 25.2895C144.962 24.6394 144.765 23.8933 144.765 23.0513V15.1381H146.58V22.9044C146.58 23.4488 146.699 23.9325 146.938 24.3555C147.181 24.7784 147.524 25.1113 147.966 25.3542C148.409 25.5931 148.934 25.7125 149.541 25.7125C150.152 25.7125 150.678 25.5931 151.121 25.3542C151.567 25.1113 151.908 24.7784 152.143 24.3555C152.382 23.9325 152.501 23.4488 152.501 22.9044V15.1381ZM166.673 15.1381V27.1694H165.004L158.889 18.3457H158.777V27.1694H156.962V15.1381H158.642L164.763 23.9736H164.875V15.1381H166.673ZM171.136 15.1381V27.1694H169.321V15.1381H171.136ZM173.186 16.7008V15.1381H182.498V16.7008H178.744V27.1694H176.934V16.7008H173.186ZM183.627 15.1381H185.689L188.832 20.6074H188.961L192.104 15.1381H194.166L189.801 22.4462V27.1694H187.992V22.4462L183.627 15.1381ZM200.258 27.1694V15.1381H207.719V16.7008H202.073V20.3666H207.184V21.9233H202.073V27.1694H200.258ZM217.688 15.1381H219.51V23.0513C219.51 23.8933 219.312 24.6394 218.916 25.2895C218.521 25.9358 217.964 26.4449 217.248 26.817C216.531 27.1851 215.691 27.3692 214.728 27.3692C213.768 27.3692 212.93 27.1851 212.213 26.817C211.496 26.4449 210.94 25.9358 210.545 25.2895C210.149 24.6394 209.951 23.8933 209.951 23.0513V15.1381H211.767V22.9044C211.767 23.4488 211.886 23.9325 212.125 24.3555C212.368 24.7784 212.711 25.1113 213.153 25.3542C213.596 25.5931 214.12 25.7125 214.728 25.7125C215.338 25.7125 215.865 25.5931 216.308 25.3542C216.754 25.1113 217.095 24.7784 217.33 24.3555C217.569 23.9325 217.688 23.4488 217.688 22.9044V15.1381ZM222.149 27.1694V15.1381H223.964V25.6068H229.416V27.1694H222.149ZM231.486 27.1694V15.1381H233.302V25.6068H238.753V27.1694H231.486ZM255.653 21.1538C255.653 22.4384 255.418 23.5428 254.948 24.4671C254.478 25.3874 253.834 26.0963 253.016 26.5937C252.201 27.0872 251.275 27.3339 250.237 27.3339C249.195 27.3339 248.265 27.0872 247.447 26.5937C246.632 26.0963 245.99 25.3855 245.52 24.4612C245.05 23.5369 244.815 22.4344 244.815 21.1538C244.815 19.8692 245.05 18.7667 245.52 17.8463C245.99 16.922 246.632 16.2132 247.447 15.7197C248.265 15.2223 249.195 14.9736 250.237 14.9736C251.275 14.9736 252.201 15.2223 253.016 15.7197C253.834 16.2132 254.478 16.922 254.948 17.8463C255.418 18.7667 255.653 19.8692 255.653 21.1538ZM253.856 21.1538C253.856 20.1747 253.697 19.3502 253.38 18.6805C253.067 18.0069 252.636 17.4978 252.088 17.1531C251.543 16.8045 250.926 16.6303 250.237 16.6303C249.544 16.6303 248.925 16.8045 248.381 17.1531C247.836 17.4978 247.405 18.0069 247.088 18.6805C246.775 19.3502 246.618 20.1747 246.618 21.1538C246.618 22.1329 246.775 22.9593 247.088 23.6329C247.405 24.3026 247.836 24.8117 248.381 25.1603C248.925 25.5049 249.544 25.6773 250.237 25.6773C250.926 25.6773 251.543 25.5049 252.088 25.1603C252.636 24.8117 253.067 24.3026 253.38 23.6329C253.697 22.9593 253.856 22.1329 253.856 21.1538ZM257.917 27.1694V15.1381H265.377V16.7008H259.732V20.3666H264.843V21.9233H259.732V27.1694H257.917Z" fill="black"/>
</svg>
