<svg width="233" height="61" viewBox="0 0 233 61" fill="none" xmlns="http://www.w3.org/2000/svg">
<path fill-rule="evenodd" clip-rule="evenodd" d="M42.0299 45.3773L38.9008 42.4908C41.2054 40.2276 42.4741 37.2441 42.4741 34.0911C42.477 32.1725 42.0021 30.2836 41.0923 28.596C40.4512 27.4122 39.6187 26.3434 38.6287 25.4332L36.9961 23.9233L38.7467 22.351L40.2383 23.8559L41.6643 22.4579C44.9951 25.5385 46.8309 29.67 46.8309 34.0911C46.8309 38.328 45.1262 42.3362 42.0299 45.3773Z" fill="#0FCE7C" stroke="#0FCE7C" stroke-width="0.352788"/>
<path d="M41.9267 55.4757H26.8302C15.1055 55.4757 5.56414 45.78 5.56414 33.8638C5.56414 21.946 15.1039 12.2519 26.8335 12.2519C31.7017 12.2519 36.3208 13.9032 40.0712 16.9444L29.7086 26.6747C28.797 26.2959 27.8201 26.1008 26.8335 26.1006C22.621 26.1006 19.1952 29.5842 19.1952 33.8638C19.1952 38.1434 22.621 41.627 26.8335 41.627C27.5647 41.6264 28.292 41.519 28.9923 41.3079L41.9283 51.2027V55.4757H41.9267ZM26.8302 36.923C25.1714 36.923 23.8208 35.5497 23.8208 33.8638C23.8208 32.1763 25.1714 30.8046 26.8319 30.8046C28.4907 30.8046 29.8413 32.1763 29.8413 33.8638C29.8413 35.5497 28.4907 36.923 26.8319 36.923H26.8302ZM34.4702 33.8638C34.4702 32.3408 34.0342 30.9197 33.2851 29.7191L39.4647 23.9148L39.5171 23.9707L46.8293 16.969L45.1443 15.2569C40.2531 10.2848 33.749 7.54797 26.8319 7.54797C12.5518 7.54797 0.933594 19.3539 0.933594 33.8638C0.933594 48.2306 12.3256 59.9395 26.4106 60.1681V60.1797H46.5556V48.8556L32.9754 38.4691C33.949 37.1325 34.4727 35.5194 34.4702 33.8638Z" fill="white"/>
<path fill-rule="evenodd" clip-rule="evenodd" d="M26.8495 36.8053C28.5333 36.8053 29.8983 35.4403 29.8983 33.7565C29.8983 32.0727 28.5333 30.7077 26.8495 30.7077C25.1657 30.7077 23.8007 32.0727 23.8007 33.7565C23.8007 35.4403 25.1657 36.8053 26.8495 36.8053ZM26.8495 41.3785C31.059 41.3785 34.4715 37.966 34.4715 33.7565C34.4715 29.547 31.059 26.1345 26.8495 26.1345C22.64 26.1345 19.2275 29.547 19.2275 33.7565C19.2275 37.966 22.64 41.3785 26.8495 41.3785Z" fill="white"/>
<path d="M51.7451 5.90328L50.1059 7.54802L48.4668 5.90328L50.1059 4.25854L51.7451 5.90328Z" fill="#25E899"/>
<path d="M38.6357 5.90328L36.9966 7.54802L35.3574 5.90328L36.9966 4.25854L38.6357 5.90328Z" fill="#25E899"/>
<path d="M18.9653 23.9956C18.0605 23.9956 17.3262 23.1798 17.3262 22.1732V2.79161C17.3262 1.78503 18.0605 0.969238 18.9653 0.969238C19.8701 0.969238 20.6044 1.78503 20.6044 2.79161V22.1732C20.6044 23.1798 19.8701 23.9956 18.9653 23.9956Z" fill="white"/>
<path d="M28.6186 19.7701C27.7138 19.7701 26.9795 19.104 26.9795 18.2821V2.45719C26.9795 1.63533 27.7138 0.969238 28.6186 0.969238C29.5234 0.969238 30.2578 1.63533 30.2578 2.45719V18.2821C30.2578 19.104 29.5234 19.7701 28.6186 19.7701Z" fill="white"/>
<path d="M78.9613 34.804H91.6597C91.6597 36.1377 91.5948 37.3714 91.4974 38.4717C91.3999 39.5719 91.1726 40.5722 90.8478 41.5058C90.3931 42.8394 89.7761 44.0064 88.9966 45.04C88.2172 46.0403 87.2754 46.9072 86.2361 47.574C85.1968 48.2408 84.0277 48.7743 82.7611 49.1077C81.4945 49.4745 80.1629 49.6412 78.7664 49.6412C76.8503 49.6412 75.0965 49.3078 73.5051 48.6743C71.9462 48.0408 70.5822 47.1072 69.4455 45.9736C68.3088 44.7733 67.4319 43.3729 66.8149 41.7392C66.1978 40.0721 65.873 38.2716 65.873 36.2711C65.873 34.3039 66.1653 32.5035 66.7824 30.8697C67.3995 29.2026 68.3088 27.8022 69.413 26.6353C70.5822 25.4683 71.9462 24.5681 73.5701 23.9346C75.1939 23.3011 76.9802 22.9677 78.9613 22.9677C81.5269 22.9677 83.7678 23.5345 85.7165 24.6681C87.6651 25.8017 89.1915 27.5689 90.3282 29.9695L84.255 32.5368C83.7029 31.1364 82.9559 30.1695 82.0466 29.5694C81.1697 28.9692 80.1304 28.6691 78.9937 28.6691C78.0519 28.6691 77.175 28.8692 76.3956 29.2359C75.6161 29.6027 74.9341 30.1028 74.382 30.803C73.8299 31.4699 73.4077 32.3034 73.0829 33.237C72.7906 34.2039 72.6283 35.2708 72.6283 36.4378C72.6283 37.5047 72.7582 38.505 73.018 39.4052C73.3103 40.3055 73.7 41.1057 74.2521 41.7725C74.8042 42.4393 75.4862 42.9728 76.2657 43.3396C77.0776 43.7063 78.0194 43.873 79.0587 43.873C79.6758 43.873 80.2928 43.8064 80.8774 43.673C81.462 43.5063 81.9816 43.2729 82.4363 42.9728C82.9234 42.6394 83.3132 42.2059 83.6055 41.7058C83.8978 41.2057 84.1251 40.5722 84.2225 39.8387H78.9613V34.804ZM123.227 28.9692V49.6412H116.407V28.9692H110.886V22.9677H128.748V28.9692H123.227ZM152.457 32.1034C150.963 30.2362 149.144 29.3026 146.968 29.3026C145.994 29.3026 145.117 29.4693 144.272 29.8361C143.46 30.2029 142.778 30.703 142.161 31.3031C141.577 31.9033 141.09 32.6368 140.765 33.5037C140.44 34.3706 140.278 35.2708 140.278 36.2711C140.278 37.2714 140.44 38.2049 140.765 39.0718C141.122 39.9387 141.577 40.6722 142.161 41.3057C142.778 41.9392 143.493 42.4393 144.305 42.7728C145.117 43.1395 145.994 43.3062 146.936 43.3062C148.982 43.3062 150.833 42.406 152.457 40.6055V48.4075L151.807 48.6409C150.833 49.0077 149.923 49.2411 149.047 49.4078C148.202 49.5745 147.358 49.6745 146.513 49.6745C144.825 49.6745 143.168 49.3411 141.609 48.7076C140.05 48.0408 138.686 47.1072 137.485 45.9069C136.316 44.7066 135.341 43.2729 134.627 41.6391C133.912 39.972 133.555 38.1716 133.555 36.2377C133.555 34.3039 133.912 32.5035 134.594 30.903C135.309 29.2693 136.251 27.8689 137.452 26.702C138.654 25.5017 140.05 24.6014 141.609 23.9346C143.168 23.2677 144.825 22.9343 146.546 22.9343C147.52 22.9343 148.494 23.0344 149.436 23.2677C150.411 23.4678 151.417 23.8012 152.457 24.2347V32.1034ZM165.837 36.3044C165.837 37.3047 166.032 38.2383 166.389 39.1052C166.746 39.972 167.266 40.7056 167.883 41.3391C168.5 41.9726 169.247 42.4727 170.092 42.8061C170.936 43.1395 171.845 43.3062 172.787 43.3062C173.729 43.3062 174.606 43.1395 175.45 42.8061C176.295 42.4393 177.042 41.9392 177.691 41.3391C178.341 40.7056 178.86 39.972 179.218 39.1052C179.575 38.2383 179.77 37.338 179.77 36.3044C179.77 35.2708 179.575 34.3706 179.218 33.5037C178.86 32.6368 178.341 31.9033 177.691 31.2698C177.074 30.6363 176.327 30.1695 175.45 29.8361C174.606 29.4693 173.729 29.3026 172.787 29.3026C171.845 29.3026 170.968 29.4693 170.092 29.8361C169.247 30.1695 168.533 30.6697 167.883 31.2698C167.266 31.9033 166.746 32.6368 166.389 33.5037C166.032 34.3706 165.837 35.3042 165.837 36.3044ZM159.147 36.3044C159.147 34.4373 159.472 32.6702 160.154 31.0698C160.836 29.436 161.777 28.0023 162.979 26.802C164.181 25.6017 165.61 24.6348 167.266 23.9679C168.955 23.2677 170.806 22.9343 172.787 22.9343C174.768 22.9343 176.619 23.2677 178.276 23.9679C179.965 24.6348 181.394 25.5683 182.595 26.802C183.829 28.0023 184.771 29.436 185.453 31.0698C186.135 32.6702 186.46 34.4373 186.46 36.3044C186.46 38.1716 186.135 39.9387 185.453 41.5725C184.771 43.1729 183.829 44.6066 182.595 45.8069C181.394 47.0072 179.965 47.9741 178.276 48.6743C176.587 49.3411 174.768 49.6745 172.787 49.6745C170.774 49.6745 168.922 49.3411 167.266 48.6743C165.61 47.9741 164.181 47.0405 162.979 45.8069C161.777 44.6066 160.836 43.1729 160.154 41.5725C159.472 39.9387 159.147 38.2049 159.147 36.3044ZM199.873 22.9677V49.6412H193.053V22.9677H199.873ZM104.391 22.9677V49.6412H97.5705V22.9677H104.391ZM207.018 49.6412V22.9677H213.513L226.179 39.2719V22.9677H232.999V49.6412H226.439L213.838 33.337V49.6412H207.018Z" fill="white"/>
</svg>
