<svg width="255" height="68" viewBox="0 0 255 68" fill="none" xmlns="http://www.w3.org/2000/svg">
<path fill-rule="evenodd" clip-rule="evenodd" d="M23.1839 38.0001C14.8997 38.0001 8.18371 31.2845 8.18371 22.9999C8.18371 14.7152 14.8997 7.99962 23.1839 7.99962C31.4686 7.99962 38.1842 14.7152 38.1842 22.9999C38.1842 31.2845 31.4686 38.0001 23.1839 38.0001ZM23.1839 0.499512C35.6105 0.499512 45.6843 10.5733 45.6843 22.9999C45.6843 35.4264 35.6105 45.5002 23.1839 45.5002C10.7574 45.5002 0.683594 35.4264 0.683594 22.9999C0.683594 10.5733 10.7574 0.499512 23.1839 0.499512ZM44.5861 46.5984C46.0506 48.063 46.0506 50.4371 44.5861 51.9017L29.5854 66.9024C28.1208 68.3669 25.7467 68.3669 24.2821 66.9024C22.8176 65.4378 22.8176 63.0637 24.2821 61.5991L39.2828 46.5984C40.7474 45.1338 43.1215 45.1338 44.5861 46.5984ZM53.1844 4.24957C53.1844 6.32096 51.5057 7.99962 49.4348 7.99962C47.3634 7.99962 45.6847 6.32096 45.6847 4.24957C45.6847 2.17817 47.3634 0.499512 49.4348 0.499512C51.5057 0.499512 53.1844 2.17817 53.1844 4.24957Z" fill="white"/>
<path d="M65.8054 24.2782V20.1407H87.5437V24.2782H79.1224V47.3867H74.2267V24.2782H65.8054ZM96.3374 35.4134V47.3867H91.5215V20.1407H96.231V30.4245H96.4705C96.9494 29.2715 97.69 28.3624 98.6922 27.6972C99.7033 27.0232 100.989 26.6862 102.55 26.6862C103.969 26.6862 105.207 26.9833 106.262 27.5775C107.317 28.1717 108.133 29.0409 108.71 30.185C109.295 31.3292 109.588 32.726 109.588 34.3757V47.3867H104.772V35.1207C104.772 33.746 104.417 32.6773 103.708 31.9145C103.007 31.1429 102.023 30.7571 100.754 30.7571C99.9028 30.7571 99.1401 30.9434 98.466 31.3159C97.8008 31.6795 97.2776 32.2072 96.8962 32.899C96.5237 33.5908 96.3374 34.4289 96.3374 35.4134ZM123.543 47.7858C121.495 47.7858 119.725 47.3601 118.235 46.5087C116.754 45.6484 115.614 44.4333 114.816 42.8635C114.018 41.2848 113.619 39.4267 113.619 37.2892C113.619 35.1872 114.018 33.3425 114.816 31.7549C115.623 30.1584 116.75 28.9168 118.195 28.0298C119.641 27.1341 121.34 26.6862 123.291 26.6862C124.55 26.6862 125.739 26.8902 126.856 27.2981C127.982 27.6972 128.976 28.3181 129.836 29.1607C130.705 30.0032 131.388 31.0764 131.885 32.3801C132.382 33.675 132.63 35.2183 132.63 37.0098V38.4865H115.881V35.2404H128.014C128.005 34.3181 127.805 33.4977 127.415 32.7793C127.025 32.052 126.479 31.4799 125.779 31.0631C125.087 30.6462 124.28 30.4378 123.357 30.4378C122.373 30.4378 121.508 30.6773 120.763 31.1562C120.018 31.6263 119.437 32.2471 119.02 33.0187C118.612 33.7815 118.404 34.6196 118.395 35.5331V38.3668C118.395 39.5553 118.612 40.5752 119.047 41.4267C119.481 42.2692 120.089 42.9167 120.869 43.369C121.65 43.8125 122.563 44.0342 123.61 44.0342C124.311 44.0342 124.945 43.9366 125.512 43.7415C126.08 43.5375 126.572 43.2404 126.989 42.8502C127.406 42.4599 127.721 41.9765 127.934 41.4001L132.43 41.9056C132.147 43.0941 131.606 44.1317 130.807 45.0187C130.018 45.8967 129.007 46.5796 127.774 47.0674C126.541 47.5464 125.131 47.7858 123.543 47.7858ZM164.462 28.8414C164.241 28.123 163.935 27.48 163.544 26.9123C163.163 26.3358 162.702 25.8436 162.161 25.4356C161.629 25.0276 161.017 24.7217 160.325 24.5177C159.633 24.3048 158.879 24.1984 158.063 24.1984C156.6 24.1984 155.296 24.5664 154.152 25.3026C153.008 26.0387 152.108 27.1208 151.451 28.5487C150.804 29.9677 150.48 31.6972 150.48 33.7371C150.48 35.7948 150.804 37.5375 151.451 38.9655C152.099 40.3934 152.999 41.4799 154.152 42.2249C155.305 42.961 156.644 43.3291 158.17 43.3291C159.553 43.3291 160.751 43.063 161.762 42.5309C162.782 41.9987 163.567 41.2448 164.116 40.2692C164.666 39.2848 164.941 38.1318 164.941 36.8103L166.059 36.9832H158.662V33.1252H169.717V36.3979C169.717 38.7304 169.221 40.7482 168.227 42.451C167.234 44.1539 165.868 45.4666 164.13 46.3889C162.391 47.3025 160.396 47.7592 158.143 47.7592C155.633 47.7592 153.429 47.196 151.531 46.0697C149.642 44.9344 148.165 43.3247 147.101 41.2404C146.046 39.1473 145.518 36.6639 145.518 33.7903C145.518 31.5908 145.828 29.6263 146.449 27.8968C147.079 26.1673 147.957 24.6995 149.083 23.4933C150.21 22.2782 151.531 21.3558 153.048 20.7261C154.564 20.0875 156.214 19.7682 157.997 19.7682C159.504 19.7682 160.91 19.99 162.214 20.4334C163.518 20.868 164.675 21.4889 165.686 22.2959C166.706 23.103 167.544 24.0609 168.201 25.1695C168.857 26.2782 169.287 27.5021 169.491 28.8414H164.462ZM174.277 47.3867V26.9522H178.947V30.358H179.16C179.532 29.1784 180.171 28.2693 181.075 27.6307C181.989 26.9833 183.031 26.6596 184.202 26.6596C184.468 26.6596 184.765 26.6729 185.093 26.6995C185.43 26.7172 185.709 26.7483 185.931 26.7926V31.2227C185.727 31.1518 185.403 31.0897 184.96 31.0365C184.525 30.9744 184.104 30.9434 183.696 30.9434C182.818 30.9434 182.029 31.134 181.328 31.5154C180.636 31.8879 180.091 32.4068 179.692 33.0719C179.293 33.7371 179.093 34.5043 179.093 35.3735V47.3867H174.277ZM194.645 47.7991C193.35 47.7991 192.184 47.5685 191.146 47.1073C190.117 46.6373 189.301 45.9455 188.698 45.032C188.104 44.1184 187.807 42.9921 187.807 41.6528C187.807 40.4998 188.02 39.5464 188.446 38.7925C188.871 38.0387 189.452 37.4356 190.188 36.9832C190.924 36.5309 191.754 36.1894 192.676 35.9588C193.607 35.7194 194.57 35.5464 195.563 35.44C196.76 35.3158 197.732 35.205 198.477 35.1074C199.222 35.001 199.763 34.8413 200.1 34.6285C200.445 34.4067 200.618 34.0653 200.618 33.6041V33.5243C200.618 32.5221 200.321 31.746 199.727 31.1961C199.133 30.6462 198.277 30.3713 197.159 30.3713C195.98 30.3713 195.044 30.6285 194.352 31.1429C193.669 31.6573 193.208 32.2649 192.969 32.9655L188.472 32.3269C188.827 31.0853 189.412 30.0476 190.228 29.2139C191.044 28.3713 192.042 27.7416 193.222 27.3247C194.401 26.899 195.705 26.6862 197.133 26.6862C198.117 26.6862 199.097 26.8015 200.073 27.0321C201.049 27.2627 201.94 27.644 202.747 28.1762C203.554 28.6995 204.202 29.4134 204.689 30.3181C205.186 31.2227 205.434 32.3535 205.434 33.7105V47.3867H200.805V44.5796H200.645C200.352 45.1473 199.94 45.6794 199.408 46.1761C198.885 46.6639 198.224 47.0586 197.426 47.3601C196.636 47.6528 195.709 47.7991 194.645 47.7991ZM195.896 44.2604C196.862 44.2604 197.7 44.0697 198.41 43.6883C199.12 43.298 199.665 42.7836 200.046 42.1451C200.437 41.5065 200.632 40.8103 200.632 40.0564V37.6484C200.481 37.7726 200.224 37.8879 199.86 37.9943C199.505 38.1007 199.106 38.1939 198.663 38.2737C198.219 38.3535 197.78 38.4245 197.346 38.4865C196.911 38.5486 196.534 38.6018 196.215 38.6462C195.497 38.7438 194.854 38.9034 194.286 39.1251C193.718 39.3469 193.27 39.6573 192.942 40.0564C192.614 40.4466 192.45 40.9522 192.45 41.573C192.45 42.4599 192.774 43.1295 193.421 43.5819C194.069 44.0342 194.893 44.2604 195.896 44.2604ZM210.277 55.0496V26.9522H215.013V30.3314H215.292C215.541 29.8347 215.891 29.307 216.343 28.7482C216.796 28.1806 217.408 27.6972 218.179 27.2981C218.951 26.8902 219.935 26.6862 221.133 26.6862C222.711 26.6862 224.135 27.0897 225.403 27.8968C226.68 28.695 227.691 29.8791 228.436 31.4489C229.19 33.0099 229.567 34.9256 229.567 37.1961C229.567 39.44 229.199 41.3468 228.463 42.9167C227.727 44.4865 226.725 45.6838 225.456 46.5087C224.188 47.3335 222.751 47.7459 221.146 47.7459C219.975 47.7459 219.004 47.5508 218.233 47.1606C217.461 46.7703 216.84 46.3003 216.37 45.7504C215.909 45.1916 215.55 44.6639 215.292 44.1672H215.093V55.0496H210.277ZM215 37.1695C215 38.491 215.186 39.6484 215.558 40.6417C215.94 41.6351 216.485 42.4111 217.195 42.9699C217.913 43.5198 218.782 43.7947 219.802 43.7947C220.867 43.7947 221.758 43.5109 222.476 42.9433C223.195 42.3668 223.736 41.5819 224.099 40.5885C224.472 39.5863 224.658 38.4466 224.658 37.1695C224.658 35.9012 224.476 34.7748 224.113 33.7903C223.749 32.8059 223.208 32.0343 222.49 31.4755C221.771 30.9167 220.876 30.6374 219.802 30.6374C218.774 30.6374 217.9 30.9079 217.182 31.4489C216.463 31.9899 215.918 32.7482 215.545 33.7238C215.182 34.6994 215 35.848 215 37.1695ZM238.507 35.4134V47.3867H233.691V20.1407H238.401V30.4245H238.64C239.119 29.2715 239.86 28.3624 240.862 27.6972C241.873 27.0232 243.159 26.6862 244.72 26.6862C246.139 26.6862 247.377 26.9833 248.432 27.5775C249.487 28.1717 250.303 29.0409 250.88 30.185C251.465 31.3292 251.758 32.726 251.758 34.3757V47.3867H246.942V35.1207C246.942 33.746 246.587 32.6773 245.878 31.9145C245.177 31.1429 244.192 30.7571 242.924 30.7571C242.073 30.7571 241.31 30.9434 240.636 31.3159C239.971 31.6795 239.448 32.2072 239.066 32.899C238.694 33.5908 238.507 34.4289 238.507 35.4134Z" fill="white"/>
</svg>
