<svg width="256" height="42" viewBox="0 0 256 42" fill="none" xmlns="http://www.w3.org/2000/svg">
<path fill-rule="evenodd" clip-rule="evenodd" d="M124.909 7.39551C122.834 7.39551 121.134 9.07443 121.134 11.2151C121.134 13.3137 122.834 14.9926 124.909 14.9926C126.983 14.9926 128.684 13.3137 128.684 11.2151C128.684 9.07443 126.983 7.39551 124.909 7.39551ZM128.228 16.9233H121.631V39.5467H128.228V16.9233ZM83.1316 8.23501H89.562V16.9234H94.499V22.9676H89.562V30.9424C89.562 32.1176 90.4747 33.041 91.5949 33.041H94.4575V39.4629H91.5949C86.9484 39.4629 83.1316 35.6433 83.1316 30.9005V22.9256H80.1445V16.8815H83.1316V8.23501ZM110.222 16.4198C107.235 16.4198 104.871 17.6789 103.958 19.6517V8.23501H97.3616V39.5049H103.958V26.8291C103.958 24.1847 105.659 22.338 108.065 22.338C110.513 22.338 111.882 23.933 111.882 26.6192V39.5468H118.478V25.7797C118.478 19.9036 115.491 16.4198 110.222 16.4198ZM137.645 16.8815V19.9875C138.641 17.7209 141.047 16.4198 144.075 16.3778C144.532 16.3778 145.113 16.4198 145.818 16.5037V22.7996C145.154 22.6737 144.407 22.5898 143.619 22.5898C139.844 22.5898 137.645 24.7304 137.645 28.466V39.5049H131.049V16.8815H137.645ZM164.363 19.8616C163.699 17.8888 161.085 16.5037 157.725 16.5037C154.572 16.5037 151.917 17.637 149.801 19.9036C147.726 22.1281 146.648 24.9403 146.648 28.2141C146.648 31.4881 147.726 34.2583 149.801 36.5668C151.917 38.7914 154.572 39.9246 157.725 39.9246C161.085 39.9246 163.699 38.5395 164.363 36.5668V39.5468H170.959V8.23501H164.363V19.8616ZM163.035 32.2436C161.915 33.3349 160.546 33.8386 158.928 33.8386C157.351 33.8386 155.982 33.2929 154.904 32.2436C153.783 31.1103 153.244 29.7672 153.244 28.2141C153.244 26.6611 153.783 25.3181 154.904 24.2267C156.024 23.0935 157.351 22.5478 158.928 22.5478C160.587 22.5478 161.956 23.0935 163.035 24.2267C164.197 25.3181 164.778 26.6611 164.778 28.2141C164.778 29.7672 164.197 31.1103 163.035 32.2436ZM190.001 17.0072L195.975 27.7523L200 16.9233H206.472L197.262 40.8479L190.001 27.8363L182.741 40.8479L173.573 16.9233H180.045L184.027 27.7523L190.001 17.0072ZM217.341 16.3778C213.939 16.3778 211.077 17.4691 208.837 19.6517C206.638 21.7922 205.517 24.6464 205.517 28.1722V28.3821C205.517 31.9078 206.638 34.762 208.837 36.9026C211.119 39.0012 214.023 40.0925 217.673 40.0925C221.075 40.0925 223.855 39.421 225.971 38.0358V32.2015C223.897 33.6706 221.241 34.3842 218.046 34.3842C214.561 34.3842 212.28 32.6633 212.155 29.977H228.543C228.625 29.3055 228.667 28.5499 228.667 27.7945C228.667 24.5625 227.588 21.8763 225.514 19.6936C223.44 17.4691 220.66 16.3778 217.341 16.3778ZM212.155 25.6538C212.197 24.6045 212.736 23.723 213.731 23.0095C214.769 22.2959 215.93 21.9183 217.341 21.9183C219.955 21.9183 221.988 23.6391 221.988 25.6538H212.155ZM244.39 16.5037C247.543 16.5037 250.199 17.637 252.273 19.9036C254.389 22.17 255.467 24.8983 255.467 28.1722C255.467 31.4461 254.389 34.2164 252.273 36.5248C250.199 38.7494 247.543 39.8827 244.39 39.8827C241.03 39.8827 238.416 38.4975 237.753 36.5248V39.5049H231.157V8.23501H237.753V19.8616C238.416 17.8888 241.03 16.5037 244.39 16.5037ZM243.187 33.8386C244.763 33.8386 246.091 33.3349 247.212 32.2436C248.331 31.1103 248.871 29.7672 248.871 28.2141C248.871 26.6611 248.331 25.3181 247.212 24.2267C246.133 23.0935 244.763 22.5478 243.187 22.5478C241.569 22.5478 240.2 23.0935 239.039 24.2267C237.919 25.3181 237.338 26.6611 237.338 28.2141C237.338 29.7672 237.919 31.1103 239.039 32.2436C240.158 33.2929 241.528 33.8386 243.187 33.8386Z" fill="white"/>
<path d="M0.179106 3.89178C-0.475371 2.23956 0.744337 0.45459 2.52927 0.45459H13.6108C14.652 0.45459 15.5741 1.07417 15.961 2.03303L24.7815 24.0428C25.0195 24.6329 25.0195 25.2967 24.7815 25.9016L19.2333 39.724C18.3855 41.8336 15.3808 41.8336 14.533 39.724L0.179106 3.89178Z" fill="url(#paint0_linear_639_760)"/>
<path d="M21.5841 3.81802C20.9892 2.18056 22.2088 0.45459 23.964 0.45459H33.6176C34.6886 0.45459 35.6405 1.11842 35.9975 2.1068L44.0148 24.1166C44.2082 24.6623 44.2082 25.2673 44.0148 25.8278L39.1954 39.0603C38.3923 41.273 35.2389 41.273 34.4356 39.0603L21.5841 3.81802Z" fill="url(#paint1_linear_639_760)"/>
<path d="M40.9066 3.89178C40.2522 2.23956 41.4718 0.45459 43.2568 0.45459H54.3384C55.3795 0.45459 56.3018 1.07417 56.6885 2.03303L65.509 24.0428C65.7471 24.6329 65.7471 25.2967 65.509 25.9016L59.9609 39.724C59.1131 41.8336 56.1084 41.8336 55.2605 39.724L40.9066 3.89178Z" fill="url(#paint2_linear_639_760)"/>
<defs>
<linearGradient id="paint0_linear_639_760" x1="0.942888" y1="7.48653" x2="33.1595" y2="21.3871" gradientUnits="userSpaceOnUse">
<stop stop-color="#F213A4"/>
<stop offset="0.1517" stop-color="#E011A7"/>
<stop offset="0.4554" stop-color="#B20DAF"/>
<stop offset="0.8789" stop-color="#6806BB"/>
<stop offset="1" stop-color="#5204BF"/>
</linearGradient>
<linearGradient id="paint1_linear_639_760" x1="22.2901" y1="7.38558" x2="52.3166" y2="19.3547" gradientUnits="userSpaceOnUse">
<stop stop-color="#F213A4"/>
<stop offset="0.1517" stop-color="#E011A7"/>
<stop offset="0.4554" stop-color="#B20DAF"/>
<stop offset="0.8789" stop-color="#6806BB"/>
<stop offset="1" stop-color="#5204BF"/>
</linearGradient>
<linearGradient id="paint2_linear_639_760" x1="41.6704" y1="7.48653" x2="73.887" y2="21.3871" gradientUnits="userSpaceOnUse">
<stop stop-color="#F213A4"/>
<stop offset="0.1517" stop-color="#E011A7"/>
<stop offset="0.4554" stop-color="#B20DAF"/>
<stop offset="0.8789" stop-color="#6806BB"/>
<stop offset="1" stop-color="#5204BF"/>
</linearGradient>
</defs>
</svg>
